<svg width="24" height="25" viewBox="0 0 24 25" fill="none" xmlns="http://www.w3.org/2000/svg">
<path fill-rule="evenodd" clip-rule="evenodd" d="M19.5455 4.9545C19.9848 5.39384 19.9848 6.10616 19.5455 6.5455L6.0455 20.0455C5.60616 20.4848 4.89384 20.4848 4.4545 20.0455C4.01517 19.6062 4.01517 18.8938 4.4545 18.4545L17.9545 4.9545C18.3938 4.51517 19.1062 4.51517 19.5455 4.9545Z" fill="#8D8D99"/>
<path fill-rule="evenodd" clip-rule="evenodd" d="M4.4545 4.9545C4.89384 4.51517 5.60616 4.51517 6.0455 4.9545L19.5455 18.4545C19.9848 18.8938 19.9848 19.6062 19.5455 20.0455C19.1062 20.4848 18.3938 20.4848 17.9545 20.0455L4.4545 6.5455C4.01517 6.10616 4.01517 5.39384 4.4545 4.9545Z" fill="#8D8D99"/>
</svg>
